<mxfile host="65bd71144e">
    <diagram id="QaBK7Wz-YUb1xWLOBeUx" name="Page-1">
        <mxGraphModel dx="1139" dy="747" grid="1" gridSize="10" guides="1" tooltips="1" connect="1" arrows="1" fold="1" page="1" pageScale="1" pageWidth="850" pageHeight="1100" math="0" shadow="0">
            <root>
                <mxCell id="0"/>
                <mxCell id="1" parent="0"/>
                <mxCell id="2" value="Boss" style="shape=umlActor;verticalLabelPosition=bottom;verticalAlign=top;html=1;outlineConnect=0;" parent="1" vertex="1">
                    <mxGeometry x="460" y="360" width="30" height="60" as="geometry"/>
                </mxCell>
                <mxCell id="3" value="" style="endArrow=classic;html=1;exitX=0.5;exitY=0.5;exitDx=0;exitDy=0;exitPerimeter=0;strokeColor=#F01616;entryX=0.5;entryY=0.5;entryDx=0;entryDy=0;entryPerimeter=0;" parent="1" source="2" target="6" edge="1">
                    <mxGeometry width="50" height="50" relative="1" as="geometry">
                        <mxPoint x="640" y="350" as="sourcePoint"/>
                        <mxPoint x="720" y="390" as="targetPoint"/>
                    </mxGeometry>
                </mxCell>
                <mxCell id="5" value="" style="endArrow=none;html=1;fillColor=#B08038;strokeColor=#F0BA3C;" parent="1" edge="1">
                    <mxGeometry width="50" height="50" relative="1" as="geometry">
                        <mxPoint x="580" y="400" as="sourcePoint"/>
                        <mxPoint x="580" y="380" as="targetPoint"/>
                    </mxGeometry>
                </mxCell>
                <mxCell id="6" value="Player" style="shape=umlActor;verticalLabelPosition=bottom;verticalAlign=top;html=1;outlineConnect=0;" parent="1" vertex="1">
                    <mxGeometry x="710" y="360" width="30" height="60" as="geometry"/>
                </mxCell>
                <mxCell id="8" value="" style="endArrow=none;html=1;strokeColor=#F0F0F0;fillColor=#B08038;exitX=0.5;exitY=0.5;exitDx=0;exitDy=0;exitPerimeter=0;" parent="1" source="2" edge="1">
                    <mxGeometry width="50" height="50" relative="1" as="geometry">
                        <mxPoint x="700" y="390" as="sourcePoint"/>
                        <mxPoint x="540" y="350" as="targetPoint"/>
                    </mxGeometry>
                </mxCell>
                <mxCell id="9" value="" style="endArrow=none;html=1;strokeColor=#F0F0F0;fillColor=#B08038;exitX=0.5;exitY=0.5;exitDx=0;exitDy=0;exitPerimeter=0;" parent="1" source="2" edge="1">
                    <mxGeometry width="50" height="50" relative="1" as="geometry">
                        <mxPoint x="485" y="400" as="sourcePoint"/>
                        <mxPoint x="540" y="430" as="targetPoint"/>
                    </mxGeometry>
                </mxCell>
                <mxCell id="10" value="&lt;font style=&quot;font-size: 10px;&quot;&gt;_MinStrikingRange&lt;/font&gt;" style="text;html=1;strokeColor=none;fillColor=none;align=center;verticalAlign=middle;whiteSpace=wrap;rounded=0;" parent="1" vertex="1">
                    <mxGeometry x="590" y="350" width="60" height="30" as="geometry"/>
                </mxCell>
                <mxCell id="11" value="&lt;font style=&quot;font-size: 10px;&quot;&gt;_StrikingMaxRange&lt;/font&gt;" style="text;html=1;strokeColor=none;fillColor=none;align=center;verticalAlign=middle;whiteSpace=wrap;rounded=0;" parent="1" vertex="1">
                    <mxGeometry x="520" y="320" width="80" height="30" as="geometry"/>
                </mxCell>
                <mxCell id="12" value="&lt;font style=&quot;font-size: 10px;&quot;&gt;_StrikingMinRange&lt;/font&gt;" style="text;html=1;strokeColor=none;fillColor=none;align=center;verticalAlign=middle;whiteSpace=wrap;rounded=0;" parent="1" vertex="1">
                    <mxGeometry x="520" y="430" width="80" height="30" as="geometry"/>
                </mxCell>
                <mxCell id="13" value="&lt;h1&gt;Jarot Boss Behaviour&lt;/h1&gt;&lt;p style=&quot;font-size: 12px;&quot;&gt;Behaviour used for taking over AI's decision for Jarot's boss battle behaviour. This behaviour does not use enemy detection like one used in EnemyBehaviour (using AlertTrigger). Because of this, the behaviour will wait until an enemy is registered to the object by the Game (boss battle trigger).&lt;/p&gt;&lt;p style=&quot;font-size: 12px;&quot;&gt;The boss cannot be damaged until it is in vulnerable state. The state will be explained in the next point.&lt;br&gt;&lt;/p&gt;" style="text;html=1;strokeColor=none;fillColor=none;spacing=5;spacingTop=-20;whiteSpace=wrap;overflow=hidden;rounded=0;fontSize=10;" parent="1" vertex="1">
                    <mxGeometry x="60" y="60" width="250" height="200" as="geometry"/>
                </mxCell>
                <mxCell id="14" value="&lt;h1&gt;Striking&lt;/h1&gt;&lt;p&gt;Striking action will be triggered when an enemy is in front of the behaviour object within defined range.&lt;/p&gt;&lt;p&gt;When triggered, the action will create a delay first at the first stage (preparation stage). After that, the next stage, the behaviour will dash and strikes whatever objects infront of the object.&lt;/p&gt;" style="text;html=1;strokeColor=none;fillColor=none;spacing=5;spacingTop=-20;whiteSpace=wrap;overflow=hidden;rounded=0;" parent="1" vertex="1">
                    <mxGeometry x="60" y="290" width="190" height="230" as="geometry"/>
                </mxCell>
                <mxCell id="15" value="&lt;h1&gt;Vulnerable&lt;/h1&gt;&lt;p&gt;The striking action will not be stopped until bumping into a wall or any obstacle in front of the object.&lt;/p&gt;&lt;p&gt;After that, the behaviour object entered a vulnerable phase where the object can be damaged.&lt;/p&gt;" style="text;html=1;strokeColor=none;fillColor=none;spacing=5;spacingTop=-20;whiteSpace=wrap;overflow=hidden;rounded=0;" parent="1" vertex="1">
                    <mxGeometry x="60" y="540" width="190" height="170" as="geometry"/>
                </mxCell>
                <mxCell id="16" value="Boss" style="shape=umlActor;verticalLabelPosition=bottom;verticalAlign=top;html=1;outlineConnect=0;" parent="1" vertex="1">
                    <mxGeometry x="460" y="600" width="30" height="60" as="geometry"/>
                </mxCell>
                <mxCell id="17" value="Boss&lt;br&gt;(vulnerable)" style="shape=umlActor;verticalLabelPosition=bottom;verticalAlign=top;html=1;outlineConnect=0;dashed=1;fontSize=12;strokeColor=#F0BA3C;" parent="1" vertex="1">
                    <mxGeometry x="650" y="600" width="30" height="60" as="geometry"/>
                </mxCell>
                <mxCell id="18" value="" style="endArrow=classic;html=1;fontSize=12;" parent="1" edge="1">
                    <mxGeometry width="50" height="50" relative="1" as="geometry">
                        <mxPoint x="500" y="630" as="sourcePoint"/>
                        <mxPoint x="640" y="630" as="targetPoint"/>
                    </mxGeometry>
                </mxCell>
                <mxCell id="19" value="Wall/&lt;br&gt;Obstacle" style="rounded=0;whiteSpace=wrap;html=1;strokeColor=#FFFFFF;fontSize=12;" parent="1" vertex="1">
                    <mxGeometry x="700" y="550" width="70" height="170" as="geometry"/>
                </mxCell>
            </root>
        </mxGraphModel>
    </diagram>
</mxfile>